# Blender v2.82 (sub 7) OBJ File: 'Asteriod3.blend'
# www.blender.org
mtllib Asteriod3.mtl
o Cube
v 1.291639 1.707764 -1.168175
v 0.942467 -1.456957 -1.167420
v 1.057465 1.213163 0.858836
v 1.065323 -1.591177 0.974455
v -1.374746 2.150411 -1.127177
v -1.145542 -1.453168 -1.186336
v -1.123903 1.177358 0.875723
v -1.027578 -1.839919 1.235829
v -1.075776 -2.037205 -0.017859
v -0.194354 -1.893874 -1.284537
v 1.191679 0.148237 -1.286903
v -1.156790 -0.075303 1.267082
v 1.232388 0.089972 1.165526
v -1.375268 0.271695 -1.358512
v -0.027215 1.438560 0.623937
v 1.197121 1.688338 -0.085605
v 0.077456 -2.360284 1.000658
v -1.315660 1.892660 -0.053064
v 0.027101 2.422469 -1.386205
v 0.987208 -1.939068 -0.125198
v -0.077190 0.779557 -1.789399
v 1.404864 0.044276 0.030143
v -0.052428 -2.613032 -0.143769
v -1.753691 0.002372 -0.080904
v 0.264095 0.085922 1.351274
v -0.006635 2.412496 -0.319035
vt 0.750000 0.625000
vt 0.875000 0.625000
vt 0.875000 0.750000
vt 0.750000 0.750000
vt 0.500000 0.875000
vt 0.625000 0.875000
vt 0.625000 1.000000
vt 0.500000 1.000000
vt 0.500000 0.125000
vt 0.625000 0.125000
vt 0.625000 0.250000
vt 0.500000 0.250000
vt 0.250000 0.625000
vt 0.375000 0.625000
vt 0.375000 0.750000
vt 0.250000 0.750000
vt 0.500000 0.625000
vt 0.625000 0.625000
vt 0.625000 0.750000
vt 0.500000 0.750000
vt 0.500000 0.375000
vt 0.625000 0.375000
vt 0.625000 0.500000
vt 0.500000 0.500000
vt 0.375000 0.375000
vt 0.375000 0.500000
vt 0.375000 0.250000
vt 0.125000 0.625000
vt 0.125000 0.750000
vt 0.125000 0.500000
vt 0.250000 0.500000
vt 0.375000 0.125000
vt 0.375000 0.000000
vt 0.500000 0.000000
vt 0.625000 0.000000
vt 0.375000 0.875000
vt 0.375000 1.000000
vt 0.750000 0.500000
vt 0.875000 0.500000
vn -0.0940 0.7348 0.6717
vn -0.0050 0.3941 0.9190
vn -0.9868 0.1221 -0.1066
vn 0.5726 -0.8037 0.1620
vn 0.9705 0.1615 0.1790
vn 0.3349 0.1307 -0.9332
vn 0.2341 -0.1600 -0.9590
vn -0.2219 -0.1539 -0.9629
vn -0.2916 0.1780 -0.9398
vn 0.9840 -0.1637 0.0704
vn 0.9722 -0.1792 -0.1508
vn 0.9983 0.0336 -0.0476
vn -0.4222 -0.8848 0.1974
vn -0.4543 -0.7930 -0.4059
vn 0.4255 -0.7770 -0.4639
vn -0.9487 -0.2415 -0.2040
vn -0.9490 -0.1993 0.2445
vn -0.9085 0.1798 0.3773
vn 0.0465 -0.0908 0.9948
vn 0.1619 -0.1420 0.9765
vn 0.0198 0.3885 0.9212
vn 0.1951 0.7699 0.6077
vn 0.4975 0.8665 0.0415
vn -0.2563 0.9588 0.1229
usemtl Material
s off
f 26/1/1 18/2/1 7/3/1 15/4/1
f 25/5/2 15/6/2 7/7/2 12/8/2
f 24/9/3 18/10/3 5/11/3 14/12/3
f 23/13/4 20/14/4 4/15/4 17/16/4
f 22/17/5 16/18/5 3/19/5 13/20/5
f 21/21/6 19/22/6 1/23/6 11/24/6
f 10/25/7 21/21/7 11/24/7 2/26/7
f 6/27/8 14/12/8 21/21/8 10/25/8
f 14/12/9 5/11/9 19/22/9 21/21/9
f 20/14/10 22/17/10 13/20/10 4/15/10
f 2/26/11 11/24/11 22/17/11 20/14/11
f 11/24/12 1/23/12 16/18/12 22/17/12
f 9/28/13 23/13/13 17/16/13 8/29/13
f 6/30/14 10/31/14 23/13/14 9/28/14
f 10/31/15 2/26/15 20/14/15 23/13/15
f 9/32/16 24/9/16 14/12/16 6/27/16
f 8/33/17 12/34/17 24/9/17 9/32/17
f 12/34/18 7/35/18 18/10/18 24/9/18
f 17/36/19 25/5/19 12/8/19 8/37/19
f 4/15/20 13/20/20 25/5/20 17/36/20
f 13/20/21 3/19/21 15/6/21 25/5/21
f 16/18/22 26/1/22 15/4/22 3/19/22
f 1/23/23 19/38/23 26/1/23 16/18/23
f 19/38/24 5/39/24 18/2/24 26/1/24
