# Blender v2.82 (sub 7) OBJ File: 'Asteriod1.blend'
# www.blender.org
mtllib Asteriod1.mtl
o Cube
v 0.824721 1.050760 -0.866701
v 0.308046 -1.389563 -0.867286
v 0.988906 1.130725 1.027808
v 0.993747 -0.858905 0.858512
v -1.247838 1.257098 -1.035864
v -0.929245 -1.222841 -0.886238
v -1.400834 1.448504 0.931491
v -1.054151 -0.735754 1.338802
v -0.887041 -1.448380 0.298273
v -0.118590 -1.611011 -0.769952
v 0.644787 -0.060371 -1.324205
v -1.495828 0.569832 1.101494
v 0.916506 0.140005 1.078034
v -1.121575 -0.114370 -1.124474
v -0.062122 1.506999 1.048684
v 0.937068 1.428037 0.062157
v -0.114358 -1.106317 1.140857
v -1.631350 1.858460 -0.091325
v -0.104568 1.468952 -0.965174
v 1.004745 -1.467629 0.099024
v -0.002626 -0.084436 -1.426071
v 0.955886 0.056368 0.001485
v 0.222310 -2.027335 0.214133
v -1.427621 0.053638 -0.024056
v -0.408776 0.519788 1.249032
v -0.114243 2.206064 -0.016517
vt 0.750000 0.625000
vt 0.875000 0.625000
vt 0.875000 0.750000
vt 0.750000 0.750000
vt 0.500000 0.875000
vt 0.625000 0.875000
vt 0.625000 1.000000
vt 0.500000 1.000000
vt 0.500000 0.125000
vt 0.625000 0.125000
vt 0.625000 0.250000
vt 0.500000 0.250000
vt 0.250000 0.625000
vt 0.375000 0.625000
vt 0.375000 0.750000
vt 0.250000 0.750000
vt 0.500000 0.625000
vt 0.625000 0.625000
vt 0.625000 0.750000
vt 0.500000 0.750000
vt 0.500000 0.375000
vt 0.625000 0.375000
vt 0.625000 0.500000
vt 0.500000 0.500000
vt 0.375000 0.375000
vt 0.375000 0.500000
vt 0.375000 0.250000
vt 0.125000 0.625000
vt 0.125000 0.750000
vt 0.125000 0.500000
vt 0.250000 0.500000
vt 0.375000 0.125000
vt 0.375000 0.000000
vt 0.500000 0.000000
vt 0.625000 0.000000
vt 0.375000 0.875000
vt 0.375000 1.000000
vt 0.750000 0.500000
vt 0.875000 0.500000
vn -0.1551 0.8636 0.4797
vn -0.1066 0.2178 0.9702
vn -0.9536 -0.0972 -0.2850
vn 0.4084 -0.6326 0.6581
vn 0.9997 -0.0226 -0.0085
vn 0.1966 0.3144 -0.9287
vn 0.0894 -0.3740 -0.9231
vn -0.1495 -0.3217 -0.9350
vn -0.1184 0.1744 -0.9775
vn 0.9987 0.0495 0.0087
vn 0.9035 -0.1678 -0.3944
vn 0.9835 -0.0265 -0.1789
vn -0.2795 -0.7726 0.5700
vn -0.4399 -0.8793 -0.1826
vn 0.4348 -0.7903 -0.4316
vn -0.9493 -0.2917 -0.1170
vn -0.9458 -0.3157 0.0763
vn -0.9965 -0.0336 0.0769
vn 0.0358 0.0529 0.9980
vn 0.1772 -0.0972 0.9794
vn 0.1121 0.1015 0.9885
vn 0.4376 0.8159 0.3779
vn 0.4878 0.7387 -0.4651
vn -0.1350 0.7956 -0.5905
usemtl Material
s off
f 26/1/1 18/2/1 7/3/1 15/4/1
f 25/5/2 15/6/2 7/7/2 12/8/2
f 24/9/3 18/10/3 5/11/3 14/12/3
f 23/13/4 20/14/4 4/15/4 17/16/4
f 22/17/5 16/18/5 3/19/5 13/20/5
f 21/21/6 19/22/6 1/23/6 11/24/6
f 10/25/7 21/21/7 11/24/7 2/26/7
f 6/27/8 14/12/8 21/21/8 10/25/8
f 14/12/9 5/11/9 19/22/9 21/21/9
f 20/14/10 22/17/10 13/20/10 4/15/10
f 2/26/11 11/24/11 22/17/11 20/14/11
f 11/24/12 1/23/12 16/18/12 22/17/12
f 9/28/13 23/13/13 17/16/13 8/29/13
f 6/30/14 10/31/14 23/13/14 9/28/14
f 10/31/15 2/26/15 20/14/15 23/13/15
f 9/32/16 24/9/16 14/12/16 6/27/16
f 8/33/17 12/34/17 24/9/17 9/32/17
f 12/34/18 7/35/18 18/10/18 24/9/18
f 17/36/19 25/5/19 12/8/19 8/37/19
f 4/15/20 13/20/20 25/5/20 17/36/20
f 13/20/21 3/19/21 15/6/21 25/5/21
f 16/18/22 26/1/22 15/4/22 3/19/22
f 1/23/23 19/38/23 26/1/23 16/18/23
f 19/38/24 5/39/24 18/2/24 26/1/24
