# Blender v2.82 (sub 7) OBJ File: 'Asteriod2.blend'
# www.blender.org
mtllib Asteriod2.mtl
o Cube
v 0.514249 1.492336 -1.185351
v 1.026787 -1.065492 -1.038187
v 1.073030 1.939110 1.092924
v 1.002287 -1.016428 1.000260
v -1.231677 1.867140 -1.105404
v -1.034280 -1.016294 -0.998165
v -1.184090 1.938579 1.128857
v -1.032969 -1.016139 1.001765
v -1.042442 -1.208372 0.002272
v 0.000541 -1.204330 -0.999938
v 1.129823 0.209938 -1.720614
v -1.307132 0.539971 1.242788
v 1.213037 0.526612 1.215852
v -1.349438 0.395307 -1.235746
v 0.027372 2.458043 1.066134
v 0.926040 2.321494 -0.022162
v 0.000000 -1.203336 1.000000
v -1.201273 2.441997 -0.001104
v -0.273497 2.323818 -1.042058
v 1.014333 -1.229666 0.001630
v 0.093753 0.509374 -1.898597
v 1.649360 0.479253 -0.539878
v 0.000000 -1.737202 0.000000
v -1.852193 0.831283 0.016876
v 0.177818 1.013963 1.680837
v 0.061975 2.915034 -0.140045
vt 0.750000 0.625000
vt 0.875000 0.625000
vt 0.875000 0.750000
vt 0.750000 0.750000
vt 0.500000 0.875000
vt 0.625000 0.875000
vt 0.625000 1.000000
vt 0.500000 1.000000
vt 0.500000 0.125000
vt 0.625000 0.125000
vt 0.625000 0.250000
vt 0.500000 0.250000
vt 0.250000 0.625000
vt 0.375000 0.625000
vt 0.375000 0.750000
vt 0.250000 0.750000
vt 0.500000 0.625000
vt 0.625000 0.625000
vt 0.625000 0.750000
vt 0.500000 0.750000
vt 0.500000 0.375000
vt 0.625000 0.375000
vt 0.625000 0.500000
vt 0.500000 0.500000
vt 0.375000 0.375000
vt 0.375000 0.500000
vt 0.375000 0.250000
vt 0.125000 0.625000
vt 0.125000 0.750000
vt 0.125000 0.500000
vt 0.250000 0.500000
vt 0.375000 0.125000
vt 0.375000 0.000000
vt 0.500000 0.000000
vt 0.625000 0.000000
vt 0.375000 0.875000
vt 0.375000 1.000000
vt 0.750000 0.500000
vt 0.875000 0.500000
vn -0.3223 0.8764 0.3579
vn -0.2201 0.2402 0.9454
vn -0.9263 0.2415 -0.2892
vn 0.3065 -0.8910 0.3349
vn 0.9626 0.2402 0.1250
vn 0.3069 0.4695 -0.8279
vn 0.0233 -0.4686 -0.8831
vn -0.2526 -0.3464 -0.9034
vn -0.2908 0.2549 -0.9222
vn 0.9566 -0.2310 0.1776
vn 0.9297 -0.3109 -0.1976
vn 0.7160 0.4782 -0.5086
vn -0.3078 -0.8939 0.3261
vn -0.3091 -0.8937 -0.3252
vn 0.2822 -0.9084 -0.3086
vn -0.9323 -0.3153 -0.1773
vn -0.9299 -0.2958 0.2185
vn -0.9194 0.2498 0.3037
vn -0.1394 -0.2384 0.9611
vn 0.1810 -0.2457 0.9523
vn 0.3206 0.2673 0.9087
vn 0.4672 0.8385 0.2806
vn 0.5151 0.6078 -0.6044
vn -0.3628 0.8329 -0.4179
usemtl Material
s off
f 26/1/1 18/2/1 7/3/1 15/4/1
f 25/5/2 15/6/2 7/7/2 12/8/2
f 24/9/3 18/10/3 5/11/3 14/12/3
f 23/13/4 20/14/4 4/15/4 17/16/4
f 22/17/5 16/18/5 3/19/5 13/20/5
f 21/21/6 19/22/6 1/23/6 11/24/6
f 10/25/7 21/21/7 11/24/7 2/26/7
f 6/27/8 14/12/8 21/21/8 10/25/8
f 14/12/9 5/11/9 19/22/9 21/21/9
f 20/14/10 22/17/10 13/20/10 4/15/10
f 2/26/11 11/24/11 22/17/11 20/14/11
f 11/24/12 1/23/12 16/18/12 22/17/12
f 9/28/13 23/13/13 17/16/13 8/29/13
f 6/30/14 10/31/14 23/13/14 9/28/14
f 10/31/15 2/26/15 20/14/15 23/13/15
f 9/32/16 24/9/16 14/12/16 6/27/16
f 8/33/17 12/34/17 24/9/17 9/32/17
f 12/34/18 7/35/18 18/10/18 24/9/18
f 17/36/19 25/5/19 12/8/19 8/37/19
f 4/15/20 13/20/20 25/5/20 17/36/20
f 13/20/21 3/19/21 15/6/21 25/5/21
f 16/18/22 26/1/22 15/4/22 3/19/22
f 1/23/23 19/38/23 26/1/23 16/18/23
f 19/38/24 5/39/24 18/2/24 26/1/24
